<svg width="31" height="31" viewBox="0 0 31 31" fill="none" xmlns="http://www.w3.org/2000/svg">
<path d="M15.0921 4.97111C9.05066 4.97111 4.15544 9.86633 4.15544 15.9078V18.011C4.15544 18.7103 3.59283 19.2729 2.89352 19.2729C2.1942 19.2729 1.63159 18.7103 1.63159 18.011V15.9078C1.63159 8.47295 7.65728 2.44727 15.0921 2.44727C22.527 2.44727 28.5526 8.47295 28.5526 15.9078V23.4846C28.5526 26.04 26.481 28.1117 23.9203 28.1117L18.1207 28.1064C17.6843 28.8583 16.8693 29.3683 15.9334 29.3683H14.2508C12.8575 29.3683 11.727 28.2378 11.727 26.8445C11.727 25.4511 12.8575 24.3206 14.2508 24.3206H15.9334C16.8693 24.3206 17.6843 24.8306 18.1207 25.5825L23.9256 25.5878C25.0876 25.5878 26.0288 24.6466 26.0288 23.4846V15.9078C26.0288 9.86633 21.1336 4.97111 15.0921 4.97111ZM9.20314 13.3839H10.0444C10.9751 13.3839 11.727 14.1358 11.727 15.0665V20.9555C11.727 21.8862 10.9751 22.6381 10.0444 22.6381H9.20314C7.34706 22.6381 5.83801 21.129 5.83801 19.2729V16.7491C5.83801 14.893 7.34706 13.3839 9.20314 13.3839ZM20.9811 13.3839C22.8372 13.3839 24.3462 14.893 24.3462 16.7491V19.2729C24.3462 21.129 22.8372 22.6381 20.9811 22.6381H20.1398C19.2091 22.6381 18.4573 21.8862 18.4573 20.9555V15.0665C18.4573 14.1358 19.2091 13.3839 20.1398 13.3839H20.9811Z" fill="white"/>
</svg>
