<svg width="131" height="131" viewBox="0 0 131 131" fill="none" xmlns="http://www.w3.org/2000/svg">
<path d="M75.5003 29C49.8189 29 29 50.0423 29 75.9991C29 101.956 49.8189 123 75.5003 123C101.181 123 122 101.956 122 75.9992C122 50.0424 101.181 29 75.5003 29ZM105.547 66.4458L72.1906 100.155C71.5101 100.848 70.4013 100.848 69.7246 100.155L64.794 95.1244C64.1177 94.4341 63.0053 93.3051 62.3291 92.6085L50.8586 80.4235C50.5223 80.0772 50.3425 79.5995 50.3425 79.1435C50.3425 78.6902 50.5223 78.2557 50.8586 77.9074L55.8853 73.3286C56.2252 72.9782 56.6804 72.8068 57.1294 72.809C57.5882 72.8125 58.0271 72.9993 58.3503 73.3286L69.7247 85.0623C70.4015 85.7585 71.5103 85.7585 72.1907 85.0623L98.1536 58.895C98.8305 58.2051 99.9388 58.2051 100.616 58.895L105.547 63.9296C106.226 64.618 106.226 65.7534 105.547 66.4458Z" fill="#05C697"/>
</svg>
